%TF.GenerationSoftware,KiCad,Pcbnew,(5.1.6)-1*%
%TF.CreationDate,2021-02-27T16:06:52+00:00*%
%TF.ProjectId,FT817_buddy_v4,46543831-375f-4627-9564-64795f76342e,rev?*%
%TF.SameCoordinates,Original*%
%TF.FileFunction,Profile,NP*%
%FSLAX46Y46*%
G04 Gerber Fmt 4.6, Leading zero omitted, Abs format (unit mm)*
G04 Created by KiCad (PCBNEW (5.1.6)-1) date 2021-02-27 16:06:52*
%MOMM*%
%LPD*%
G01*
G04 APERTURE LIST*
%TA.AperFunction,Profile*%
%ADD10C,0.050000*%
%TD*%
%TA.AperFunction,Profile*%
%ADD11C,0.000100*%
%TD*%
G04 APERTURE END LIST*
D10*
X133500000Y-28400000D02*
G75*
G02*
X136900000Y-25000000I3400000J0D01*
G01*
X203100000Y-25000000D02*
G75*
G02*
X206500000Y-28400000I0J-3400000D01*
G01*
X206500000Y-134600000D02*
G75*
G02*
X203100000Y-138000000I-3400000J0D01*
G01*
X136900000Y-138000000D02*
G75*
G02*
X133500000Y-134600000I0J3400000D01*
G01*
X153000000Y-25000000D02*
X203100000Y-25000000D01*
X136900000Y-25000000D02*
X141000000Y-25000000D01*
X206500000Y-134600000D02*
X206500000Y-68000000D01*
X206500000Y-28400000D02*
X206500000Y-56000000D01*
X133500000Y-134600000D02*
X133500000Y-28400000D01*
X136900000Y-138000000D02*
X203100000Y-138000000D01*
X185000000Y-29500000D02*
G75*
G03*
X185000000Y-29500000I-2000000J0D01*
G01*
X193000000Y-29500000D02*
G75*
G03*
X193000000Y-29500000I-2000000J0D01*
G01*
X193000000Y-38000000D02*
G75*
G03*
X193000000Y-38000000I-2000000J0D01*
G01*
X185000000Y-38000000D02*
G75*
G03*
X185000000Y-38000000I-2000000J0D01*
G01*
D11*
%TO.C,J3*%
X206500000Y-60000000D02*
X206500000Y-56000000D01*
X205300000Y-60000000D02*
X206500000Y-60000000D01*
X205300000Y-64000000D02*
X205300000Y-60000000D01*
X206500000Y-64000000D02*
X205300000Y-64000000D01*
X206500000Y-68000000D02*
X206500000Y-64000000D01*
%TO.C,J2*%
X153000000Y-25000000D02*
X149000000Y-25000000D01*
X149000000Y-25000000D02*
X149000000Y-26200000D01*
X149000000Y-26200000D02*
X145000000Y-26200000D01*
X145000000Y-26200000D02*
X145000000Y-25000000D01*
X145000000Y-25000000D02*
X141000000Y-25000000D01*
%TD*%
M02*
