M48
; DRILL file {KiCad (5.1.6)-1} date 02/27/21 16:08:20
; FORMAT={-:-/ absolute / metric / decimal}
; #@! TF.CreationDate,2021-02-27T16:08:20+00:00
; #@! TF.GenerationSoftware,Kicad,Pcbnew,(5.1.6)-1
; #@! TF.FileFunction,NonPlated,1,2,NPTH
FMAT,2
METRIC
T1C1.200
T2C1.500
T3C3.200
%
G90
G05
T1
X142.0Y-27.0
X142.0Y-29.5
X147.0Y-34.5
X152.0Y-27.0
X152.0Y-29.5
X197.0Y-62.0
X202.0Y-57.0
X202.0Y-67.0
X204.5Y-57.0
X204.5Y-67.0
T2
X149.75Y-103.55
X149.75Y-104.05
X149.75Y-104.8
X149.75Y-105.55
X149.75Y-106.05
X149.75Y-123.55
X149.75Y-124.3
X149.75Y-124.8
X149.75Y-125.55
X149.75Y-126.05
X190.25Y-103.55
X190.25Y-104.05
X190.25Y-104.8
X190.25Y-105.3
X190.25Y-106.05
X190.25Y-123.55
X190.25Y-124.05
X190.25Y-124.8
X190.25Y-125.3
X190.25Y-126.05
T3
X136.9Y-134.6
X203.1Y-134.6
X203.1Y-28.4
X136.9Y-28.4
T0
M30
