%TF.GenerationSoftware,KiCad,Pcbnew,(5.1.6)-1*%
%TF.CreationDate,2021-02-27T16:06:52+00:00*%
%TF.ProjectId,FT817_buddy_v4,46543831-375f-4627-9564-64795f76342e,rev?*%
%TF.SameCoordinates,Original*%
%TF.FileFunction,Soldermask,Top*%
%TF.FilePolarity,Negative*%
%FSLAX46Y46*%
G04 Gerber Fmt 4.6, Leading zero omitted, Abs format (unit mm)*
G04 Created by KiCad (PCBNEW (5.1.6)-1) date 2021-02-27 16:06:52*
%MOMM*%
%LPD*%
G01*
G04 APERTURE LIST*
%ADD10O,1.800000X1.800000*%
%ADD11R,1.800000X1.800000*%
%ADD12O,1.408000X2.716000*%
%ADD13O,2.716000X1.408000*%
%ADD14C,1.300000*%
%ADD15O,1.700000X1.700000*%
%ADD16R,1.700000X1.700000*%
%ADD17C,3.300000*%
%ADD18C,0.100000*%
%ADD19C,1.600000*%
%ADD20R,0.700000X2.400000*%
%ADD21O,2.100000X4.600000*%
%ADD22R,1.400000X3.500000*%
%ADD23C,2.100000*%
%ADD24O,3.600000X2.300000*%
%ADD25O,2.600000X1.600000*%
%ADD26R,2.600000X1.600000*%
%ADD27O,2.300000X3.600000*%
%ADD28O,1.600000X2.600000*%
%ADD29R,1.600000X2.600000*%
%ADD30R,2.100000X1.600000*%
%ADD31R,2.100000X3.900000*%
G04 APERTURE END LIST*
D10*
%TO.C,J9*%
X136000000Y-45340000D03*
X136000000Y-47880000D03*
X136000000Y-50420000D03*
X136000000Y-52960000D03*
D11*
X136000000Y-55500000D03*
%TD*%
%TO.C,J7*%
X145000000Y-55540000D03*
D10*
X145000000Y-53000000D03*
X145000000Y-50460000D03*
X145000000Y-47920000D03*
X145000000Y-45380000D03*
%TD*%
%TO.C,J8*%
X140500000Y-45320000D03*
X140500000Y-47860000D03*
X140500000Y-50400000D03*
X140500000Y-52940000D03*
D11*
X140500000Y-55480000D03*
%TD*%
D12*
%TO.C,J3*%
X202000000Y-62000000D03*
D13*
X197000000Y-57000000D03*
X197000000Y-59500000D03*
X197000000Y-64500000D03*
X197000000Y-67000000D03*
D14*
X204500000Y-67000000D03*
X202000000Y-67000000D03*
X197000000Y-62000000D03*
X204500000Y-57000000D03*
X202000000Y-57000000D03*
%TD*%
D15*
%TO.C,A1*%
X136440000Y-76000000D03*
X136440000Y-60760000D03*
X172000000Y-76000000D03*
X138980000Y-60760000D03*
X169460000Y-76000000D03*
X141520000Y-60760000D03*
X166920000Y-76000000D03*
X144060000Y-60760000D03*
X164380000Y-76000000D03*
X146600000Y-60760000D03*
X161840000Y-76000000D03*
X149140000Y-60760000D03*
X159300000Y-76000000D03*
X151680000Y-60760000D03*
X156760000Y-76000000D03*
X154220000Y-60760000D03*
X154220000Y-76000000D03*
X156760000Y-60760000D03*
X151680000Y-76000000D03*
X159300000Y-60760000D03*
X149140000Y-76000000D03*
X161840000Y-60760000D03*
X146600000Y-76000000D03*
X164380000Y-60760000D03*
X144060000Y-76000000D03*
X166920000Y-60760000D03*
X141520000Y-76000000D03*
X169460000Y-60760000D03*
X138980000Y-76000000D03*
D16*
X172000000Y-60760000D03*
%TD*%
D10*
%TO.C,J6*%
X156000000Y-55580000D03*
X156000000Y-53040000D03*
D11*
X156000000Y-50500000D03*
%TD*%
D17*
%TO.C,REF\u002A\u002A*%
X136900000Y-28400000D03*
%TD*%
%TO.C,REF\u002A\u002A*%
X203100000Y-28400000D03*
%TD*%
%TO.C,REF\u002A\u002A*%
X203100000Y-134600000D03*
%TD*%
%TO.C,REF\u002A\u002A*%
X136900000Y-134600000D03*
%TD*%
D11*
%TO.C,J5*%
X195000000Y-49000000D03*
%TD*%
D10*
%TO.C,U2*%
X169380000Y-49000000D03*
X171920000Y-49000000D03*
X174460000Y-49000000D03*
D11*
X177000000Y-49000000D03*
%TD*%
D18*
%TO.C,U4*%
G36*
X174309755Y-99800961D02*
G01*
X174319134Y-99803806D01*
X174327779Y-99808427D01*
X174335355Y-99814645D01*
X174341573Y-99822221D01*
X174346194Y-99830866D01*
X174349039Y-99840245D01*
X174350000Y-99850000D01*
X174350000Y-105650000D01*
X174349039Y-105659755D01*
X174346194Y-105669134D01*
X174341573Y-105677779D01*
X174335355Y-105685355D01*
X174327779Y-105691573D01*
X174319134Y-105696194D01*
X174309755Y-105699039D01*
X174300000Y-105700000D01*
X173700000Y-105700000D01*
X173690245Y-105699039D01*
X173680866Y-105696194D01*
X173672221Y-105691573D01*
X173664645Y-105685355D01*
X173658427Y-105677779D01*
X173653806Y-105669134D01*
X173650961Y-105659755D01*
X173650000Y-105650000D01*
X173650000Y-99850000D01*
X173650961Y-99840245D01*
X173653806Y-99830866D01*
X173658427Y-99822221D01*
X173664645Y-99814645D01*
X173672221Y-99808427D01*
X173680866Y-99803806D01*
X173690245Y-99800961D01*
X173700000Y-99800000D01*
X174300000Y-99800000D01*
X174309755Y-99800961D01*
G37*
G36*
X173109755Y-99800961D02*
G01*
X173119134Y-99803806D01*
X173127779Y-99808427D01*
X173135355Y-99814645D01*
X173141573Y-99822221D01*
X173146194Y-99830866D01*
X173149039Y-99840245D01*
X173150000Y-99850000D01*
X173150000Y-102442998D01*
X173348076Y-103136264D01*
X173350000Y-103150000D01*
X173350000Y-105650000D01*
X173349039Y-105659755D01*
X173346194Y-105669134D01*
X173341573Y-105677779D01*
X173335355Y-105685355D01*
X173327779Y-105691573D01*
X173319134Y-105696194D01*
X173309755Y-105699039D01*
X173300000Y-105700000D01*
X172700000Y-105700000D01*
X172690245Y-105699039D01*
X172680866Y-105696194D01*
X172672221Y-105691573D01*
X172664645Y-105685355D01*
X172658427Y-105677779D01*
X172653806Y-105669134D01*
X172650961Y-105659755D01*
X172650000Y-105650000D01*
X172650000Y-103157002D01*
X172451924Y-102463736D01*
X172450000Y-102450000D01*
X172450000Y-99850000D01*
X172450961Y-99840245D01*
X172453806Y-99830866D01*
X172458427Y-99822221D01*
X172464645Y-99814645D01*
X172472221Y-99808427D01*
X172480866Y-99803806D01*
X172490245Y-99800961D01*
X172500000Y-99800000D01*
X173100000Y-99800000D01*
X173109755Y-99800961D01*
G37*
G36*
X172009755Y-99800961D02*
G01*
X172019134Y-99803806D01*
X172027779Y-99808427D01*
X172035355Y-99814645D01*
X172041573Y-99822221D01*
X172046194Y-99830866D01*
X172049039Y-99840245D01*
X172050000Y-99850000D01*
X172050000Y-102439738D01*
X172345957Y-103130304D01*
X172348917Y-103139648D01*
X172350000Y-103150000D01*
X172350000Y-105650000D01*
X172349039Y-105659755D01*
X172346194Y-105669134D01*
X172341573Y-105677779D01*
X172335355Y-105685355D01*
X172327779Y-105691573D01*
X172319134Y-105696194D01*
X172309755Y-105699039D01*
X172300000Y-105700000D01*
X171700000Y-105700000D01*
X171690245Y-105699039D01*
X171680866Y-105696194D01*
X171672221Y-105691573D01*
X171664645Y-105685355D01*
X171658427Y-105677779D01*
X171653806Y-105669134D01*
X171650961Y-105659755D01*
X171650000Y-105650000D01*
X171650000Y-103150000D01*
X171650961Y-103140245D01*
X171653806Y-103130866D01*
X171658427Y-103122221D01*
X171664645Y-103114645D01*
X171672221Y-103108427D01*
X171680866Y-103103806D01*
X171690245Y-103100961D01*
X171700000Y-103100000D01*
X171713841Y-103100000D01*
X171356588Y-102474807D01*
X171352582Y-102465861D01*
X171350399Y-102456306D01*
X171350000Y-102450000D01*
X171350000Y-99850000D01*
X171350961Y-99840245D01*
X171353806Y-99830866D01*
X171358427Y-99822221D01*
X171364645Y-99814645D01*
X171372221Y-99808427D01*
X171380866Y-99803806D01*
X171390245Y-99800961D01*
X171400000Y-99800000D01*
X172000000Y-99800000D01*
X172009755Y-99800961D01*
G37*
G36*
X170909755Y-99800961D02*
G01*
X170919134Y-99803806D01*
X170927779Y-99808427D01*
X170935355Y-99814645D01*
X170941573Y-99822221D01*
X170946194Y-99830866D01*
X170949039Y-99840245D01*
X170950000Y-99850000D01*
X170950000Y-102436722D01*
X171343412Y-103125193D01*
X171347418Y-103134139D01*
X171349601Y-103143694D01*
X171350000Y-103150000D01*
X171350000Y-105650000D01*
X171349039Y-105659755D01*
X171346194Y-105669134D01*
X171341573Y-105677779D01*
X171335355Y-105685355D01*
X171327779Y-105691573D01*
X171319134Y-105696194D01*
X171309755Y-105699039D01*
X171300000Y-105700000D01*
X170700000Y-105700000D01*
X170690245Y-105699039D01*
X170680866Y-105696194D01*
X170672221Y-105691573D01*
X170664645Y-105685355D01*
X170658427Y-105677779D01*
X170653806Y-105669134D01*
X170650961Y-105659755D01*
X170650000Y-105650000D01*
X170650000Y-103150000D01*
X170650961Y-103140245D01*
X170653806Y-103130866D01*
X170658427Y-103122221D01*
X170664645Y-103114645D01*
X170672221Y-103108427D01*
X170680866Y-103103806D01*
X170690245Y-103100961D01*
X170700000Y-103100000D01*
X170702840Y-103100000D01*
X170259313Y-102479062D01*
X170254425Y-102470566D01*
X170251289Y-102461280D01*
X170250000Y-102450000D01*
X170250000Y-99850000D01*
X170250961Y-99840245D01*
X170253806Y-99830866D01*
X170258427Y-99822221D01*
X170264645Y-99814645D01*
X170272221Y-99808427D01*
X170280866Y-99803806D01*
X170290245Y-99800961D01*
X170300000Y-99800000D01*
X170900000Y-99800000D01*
X170909755Y-99800961D01*
G37*
G36*
X168609755Y-99800961D02*
G01*
X168619134Y-99803806D01*
X168627779Y-99808427D01*
X168635355Y-99814645D01*
X168641573Y-99822221D01*
X168646194Y-99830866D01*
X168649039Y-99840245D01*
X168650000Y-99850000D01*
X168650000Y-102450000D01*
X168649039Y-102459755D01*
X168645957Y-102469696D01*
X168350000Y-103160262D01*
X168350000Y-105650000D01*
X168349039Y-105659755D01*
X168346194Y-105669134D01*
X168341573Y-105677779D01*
X168335355Y-105685355D01*
X168327779Y-105691573D01*
X168319134Y-105696194D01*
X168309755Y-105699039D01*
X168300000Y-105700000D01*
X167700000Y-105700000D01*
X167690245Y-105699039D01*
X167680866Y-105696194D01*
X167672221Y-105691573D01*
X167664645Y-105685355D01*
X167658427Y-105677779D01*
X167653806Y-105669134D01*
X167650961Y-105659755D01*
X167650000Y-105650000D01*
X167650000Y-103150000D01*
X167650961Y-103140245D01*
X167654043Y-103130304D01*
X167950000Y-102439738D01*
X167950000Y-99850000D01*
X167950961Y-99840245D01*
X167953806Y-99830866D01*
X167958427Y-99822221D01*
X167964645Y-99814645D01*
X167972221Y-99808427D01*
X167980866Y-99803806D01*
X167990245Y-99800961D01*
X168000000Y-99800000D01*
X168600000Y-99800000D01*
X168609755Y-99800961D01*
G37*
G36*
X167509755Y-99800961D02*
G01*
X167519134Y-99803806D01*
X167527779Y-99808427D01*
X167535355Y-99814645D01*
X167541573Y-99822221D01*
X167546194Y-99830866D01*
X167549039Y-99840245D01*
X167550000Y-99850000D01*
X167550000Y-102450000D01*
X167548076Y-102463736D01*
X167350000Y-103157002D01*
X167350000Y-105650000D01*
X167349039Y-105659755D01*
X167346194Y-105669134D01*
X167341573Y-105677779D01*
X167335355Y-105685355D01*
X167327779Y-105691573D01*
X167319134Y-105696194D01*
X167309755Y-105699039D01*
X167300000Y-105700000D01*
X166700000Y-105700000D01*
X166690245Y-105699039D01*
X166680866Y-105696194D01*
X166672221Y-105691573D01*
X166664645Y-105685355D01*
X166658427Y-105677779D01*
X166653806Y-105669134D01*
X166650961Y-105659755D01*
X166650000Y-105650000D01*
X166650000Y-103150000D01*
X166651924Y-103136264D01*
X166850000Y-102442998D01*
X166850000Y-99850000D01*
X166850961Y-99840245D01*
X166853806Y-99830866D01*
X166858427Y-99822221D01*
X166864645Y-99814645D01*
X166872221Y-99808427D01*
X166880866Y-99803806D01*
X166890245Y-99800961D01*
X166900000Y-99800000D01*
X167500000Y-99800000D01*
X167509755Y-99800961D01*
G37*
G36*
X166309755Y-99800961D02*
G01*
X166319134Y-99803806D01*
X166327779Y-99808427D01*
X166335355Y-99814645D01*
X166341573Y-99822221D01*
X166346194Y-99830866D01*
X166349039Y-99840245D01*
X166350000Y-99850000D01*
X166350000Y-105650000D01*
X166349039Y-105659755D01*
X166346194Y-105669134D01*
X166341573Y-105677779D01*
X166335355Y-105685355D01*
X166327779Y-105691573D01*
X166319134Y-105696194D01*
X166309755Y-105699039D01*
X166300000Y-105700000D01*
X165700000Y-105700000D01*
X165690245Y-105699039D01*
X165680866Y-105696194D01*
X165672221Y-105691573D01*
X165664645Y-105685355D01*
X165658427Y-105677779D01*
X165653806Y-105669134D01*
X165650961Y-105659755D01*
X165650000Y-105650000D01*
X165650000Y-99850000D01*
X165650961Y-99840245D01*
X165653806Y-99830866D01*
X165658427Y-99822221D01*
X165664645Y-99814645D01*
X165672221Y-99808427D01*
X165680866Y-99803806D01*
X165690245Y-99800961D01*
X165700000Y-99800000D01*
X166300000Y-99800000D01*
X166309755Y-99800961D01*
G37*
G36*
X169709755Y-99800961D02*
G01*
X169719134Y-99803806D01*
X169727779Y-99808427D01*
X169735355Y-99814645D01*
X169741573Y-99822221D01*
X169746194Y-99830866D01*
X169749039Y-99840245D01*
X169750000Y-99850000D01*
X169750000Y-102434860D01*
X170193427Y-103100000D01*
X170300000Y-103100000D01*
X170309755Y-103100961D01*
X170319134Y-103103806D01*
X170327779Y-103108427D01*
X170335355Y-103114645D01*
X170341573Y-103122221D01*
X170346194Y-103130866D01*
X170349039Y-103140245D01*
X170350000Y-103150000D01*
X170350000Y-105650000D01*
X170349039Y-105659755D01*
X170346194Y-105669134D01*
X170341573Y-105677779D01*
X170335355Y-105685355D01*
X170327779Y-105691573D01*
X170319134Y-105696194D01*
X170309755Y-105699039D01*
X170300000Y-105700000D01*
X169700000Y-105700000D01*
X169690245Y-105699039D01*
X169680866Y-105696194D01*
X169672221Y-105691573D01*
X169664645Y-105685355D01*
X169658427Y-105677779D01*
X169653806Y-105669134D01*
X169650961Y-105659755D01*
X169650000Y-105650000D01*
X169650000Y-103168497D01*
X169062037Y-102482540D01*
X169056418Y-102474508D01*
X169052475Y-102465535D01*
X169050357Y-102455965D01*
X169050000Y-102450000D01*
X169050000Y-99850000D01*
X169050961Y-99840245D01*
X169053806Y-99830866D01*
X169058427Y-99822221D01*
X169064645Y-99814645D01*
X169072221Y-99808427D01*
X169080866Y-99803806D01*
X169090245Y-99800961D01*
X169100000Y-99800000D01*
X169700000Y-99800000D01*
X169709755Y-99800961D01*
G37*
D19*
X190250000Y-104050000D03*
X190250000Y-106050000D03*
X190250000Y-103550000D03*
D20*
X169000000Y-104500000D03*
D21*
X149750000Y-104800000D03*
X190250000Y-104800000D03*
X149750000Y-124800000D03*
X190250000Y-124800000D03*
D19*
X190250000Y-105300000D03*
X190250000Y-123550000D03*
X190250000Y-126050000D03*
X149750000Y-104050000D03*
X149750000Y-103550000D03*
X149750000Y-105550000D03*
X149750000Y-106050000D03*
X149750000Y-123550000D03*
X149750000Y-126050000D03*
X149750000Y-124300000D03*
X149750000Y-125550000D03*
X190250000Y-124050000D03*
X190250000Y-125300000D03*
%TD*%
D10*
%TO.C,J1*%
X192160000Y-49000000D03*
X189620000Y-49000000D03*
X187080000Y-49000000D03*
X184540000Y-49000000D03*
D11*
X182000000Y-49000000D03*
%TD*%
D22*
%TO.C,BZ1*%
X190350000Y-90000000D03*
X181650000Y-90000000D03*
%TD*%
%TO.C,C1*%
G36*
G01*
X198728262Y-39575000D02*
X197771738Y-39575000D01*
G75*
G02*
X197500000Y-39303262I0J271738D01*
G01*
X197500000Y-38596738D01*
G75*
G02*
X197771738Y-38325000I271738J0D01*
G01*
X198728262Y-38325000D01*
G75*
G02*
X199000000Y-38596738I0J-271738D01*
G01*
X199000000Y-39303262D01*
G75*
G02*
X198728262Y-39575000I-271738J0D01*
G01*
G37*
G36*
G01*
X198728262Y-41625000D02*
X197771738Y-41625000D01*
G75*
G02*
X197500000Y-41353262I0J271738D01*
G01*
X197500000Y-40646738D01*
G75*
G02*
X197771738Y-40375000I271738J0D01*
G01*
X198728262Y-40375000D01*
G75*
G02*
X199000000Y-40646738I0J-271738D01*
G01*
X199000000Y-41353262D01*
G75*
G02*
X198728262Y-41625000I-271738J0D01*
G01*
G37*
%TD*%
%TO.C,C2*%
G36*
G01*
X202821738Y-53125000D02*
X203778262Y-53125000D01*
G75*
G02*
X204050000Y-53396738I0J-271738D01*
G01*
X204050000Y-54103262D01*
G75*
G02*
X203778262Y-54375000I-271738J0D01*
G01*
X202821738Y-54375000D01*
G75*
G02*
X202550000Y-54103262I0J271738D01*
G01*
X202550000Y-53396738D01*
G75*
G02*
X202821738Y-53125000I271738J0D01*
G01*
G37*
G36*
G01*
X202821738Y-51075000D02*
X203778262Y-51075000D01*
G75*
G02*
X204050000Y-51346738I0J-271738D01*
G01*
X204050000Y-52053262D01*
G75*
G02*
X203778262Y-52325000I-271738J0D01*
G01*
X202821738Y-52325000D01*
G75*
G02*
X202550000Y-52053262I0J271738D01*
G01*
X202550000Y-51346738D01*
G75*
G02*
X202821738Y-51075000I271738J0D01*
G01*
G37*
%TD*%
%TO.C,C3*%
G36*
G01*
X199121738Y-53175000D02*
X200078262Y-53175000D01*
G75*
G02*
X200350000Y-53446738I0J-271738D01*
G01*
X200350000Y-54153262D01*
G75*
G02*
X200078262Y-54425000I-271738J0D01*
G01*
X199121738Y-54425000D01*
G75*
G02*
X198850000Y-54153262I0J271738D01*
G01*
X198850000Y-53446738D01*
G75*
G02*
X199121738Y-53175000I271738J0D01*
G01*
G37*
G36*
G01*
X199121738Y-51125000D02*
X200078262Y-51125000D01*
G75*
G02*
X200350000Y-51396738I0J-271738D01*
G01*
X200350000Y-52103262D01*
G75*
G02*
X200078262Y-52375000I-271738J0D01*
G01*
X199121738Y-52375000D01*
G75*
G02*
X198850000Y-52103262I0J271738D01*
G01*
X198850000Y-51396738D01*
G75*
G02*
X199121738Y-51125000I271738J0D01*
G01*
G37*
%TD*%
%TO.C,C4*%
G36*
G01*
X177425000Y-34478262D02*
X177425000Y-33521738D01*
G75*
G02*
X177696738Y-33250000I271738J0D01*
G01*
X178403262Y-33250000D01*
G75*
G02*
X178675000Y-33521738I0J-271738D01*
G01*
X178675000Y-34478262D01*
G75*
G02*
X178403262Y-34750000I-271738J0D01*
G01*
X177696738Y-34750000D01*
G75*
G02*
X177425000Y-34478262I0J271738D01*
G01*
G37*
G36*
G01*
X175375000Y-34478262D02*
X175375000Y-33521738D01*
G75*
G02*
X175646738Y-33250000I271738J0D01*
G01*
X176353262Y-33250000D01*
G75*
G02*
X176625000Y-33521738I0J-271738D01*
G01*
X176625000Y-34478262D01*
G75*
G02*
X176353262Y-34750000I-271738J0D01*
G01*
X175646738Y-34750000D01*
G75*
G02*
X175375000Y-34478262I0J271738D01*
G01*
G37*
%TD*%
%TO.C,C5*%
G36*
G01*
X168575000Y-33521738D02*
X168575000Y-34478262D01*
G75*
G02*
X168303262Y-34750000I-271738J0D01*
G01*
X167596738Y-34750000D01*
G75*
G02*
X167325000Y-34478262I0J271738D01*
G01*
X167325000Y-33521738D01*
G75*
G02*
X167596738Y-33250000I271738J0D01*
G01*
X168303262Y-33250000D01*
G75*
G02*
X168575000Y-33521738I0J-271738D01*
G01*
G37*
G36*
G01*
X170625000Y-33521738D02*
X170625000Y-34478262D01*
G75*
G02*
X170353262Y-34750000I-271738J0D01*
G01*
X169646738Y-34750000D01*
G75*
G02*
X169375000Y-34478262I0J271738D01*
G01*
X169375000Y-33521738D01*
G75*
G02*
X169646738Y-33250000I271738J0D01*
G01*
X170353262Y-33250000D01*
G75*
G02*
X170625000Y-33521738I0J-271738D01*
G01*
G37*
%TD*%
%TO.C,C10*%
G36*
G01*
X168600000Y-91521738D02*
X168600000Y-92478262D01*
G75*
G02*
X168328262Y-92750000I-271738J0D01*
G01*
X167621738Y-92750000D01*
G75*
G02*
X167350000Y-92478262I0J271738D01*
G01*
X167350000Y-91521738D01*
G75*
G02*
X167621738Y-91250000I271738J0D01*
G01*
X168328262Y-91250000D01*
G75*
G02*
X168600000Y-91521738I0J-271738D01*
G01*
G37*
G36*
G01*
X170650000Y-91521738D02*
X170650000Y-92478262D01*
G75*
G02*
X170378262Y-92750000I-271738J0D01*
G01*
X169671738Y-92750000D01*
G75*
G02*
X169400000Y-92478262I0J271738D01*
G01*
X169400000Y-91521738D01*
G75*
G02*
X169671738Y-91250000I271738J0D01*
G01*
X170378262Y-91250000D01*
G75*
G02*
X170650000Y-91521738I0J-271738D01*
G01*
G37*
%TD*%
%TO.C,D1*%
G36*
G01*
X151278262Y-114875000D02*
X150321738Y-114875000D01*
G75*
G02*
X150050000Y-114603262I0J271738D01*
G01*
X150050000Y-113896738D01*
G75*
G02*
X150321738Y-113625000I271738J0D01*
G01*
X151278262Y-113625000D01*
G75*
G02*
X151550000Y-113896738I0J-271738D01*
G01*
X151550000Y-114603262D01*
G75*
G02*
X151278262Y-114875000I-271738J0D01*
G01*
G37*
G36*
G01*
X151278262Y-116925000D02*
X150321738Y-116925000D01*
G75*
G02*
X150050000Y-116653262I0J271738D01*
G01*
X150050000Y-115946738D01*
G75*
G02*
X150321738Y-115675000I271738J0D01*
G01*
X151278262Y-115675000D01*
G75*
G02*
X151550000Y-115946738I0J-271738D01*
G01*
X151550000Y-116653262D01*
G75*
G02*
X151278262Y-116925000I-271738J0D01*
G01*
G37*
%TD*%
%TO.C,D2*%
G36*
G01*
X151398262Y-128135000D02*
X150441738Y-128135000D01*
G75*
G02*
X150170000Y-127863262I0J271738D01*
G01*
X150170000Y-127156738D01*
G75*
G02*
X150441738Y-126885000I271738J0D01*
G01*
X151398262Y-126885000D01*
G75*
G02*
X151670000Y-127156738I0J-271738D01*
G01*
X151670000Y-127863262D01*
G75*
G02*
X151398262Y-128135000I-271738J0D01*
G01*
G37*
G36*
G01*
X151398262Y-130185000D02*
X150441738Y-130185000D01*
G75*
G02*
X150170000Y-129913262I0J271738D01*
G01*
X150170000Y-129206738D01*
G75*
G02*
X150441738Y-128935000I271738J0D01*
G01*
X151398262Y-128935000D01*
G75*
G02*
X151670000Y-129206738I0J-271738D01*
G01*
X151670000Y-129913262D01*
G75*
G02*
X151398262Y-130185000I-271738J0D01*
G01*
G37*
%TD*%
%TO.C,D3*%
G36*
G01*
X189588262Y-128135000D02*
X188631738Y-128135000D01*
G75*
G02*
X188360000Y-127863262I0J271738D01*
G01*
X188360000Y-127156738D01*
G75*
G02*
X188631738Y-126885000I271738J0D01*
G01*
X189588262Y-126885000D01*
G75*
G02*
X189860000Y-127156738I0J-271738D01*
G01*
X189860000Y-127863262D01*
G75*
G02*
X189588262Y-128135000I-271738J0D01*
G01*
G37*
G36*
G01*
X189588262Y-130185000D02*
X188631738Y-130185000D01*
G75*
G02*
X188360000Y-129913262I0J271738D01*
G01*
X188360000Y-129206738D01*
G75*
G02*
X188631738Y-128935000I271738J0D01*
G01*
X189588262Y-128935000D01*
G75*
G02*
X189860000Y-129206738I0J-271738D01*
G01*
X189860000Y-129913262D01*
G75*
G02*
X189588262Y-130185000I-271738J0D01*
G01*
G37*
%TD*%
%TO.C,D4*%
G36*
G01*
X189678262Y-114875000D02*
X188721738Y-114875000D01*
G75*
G02*
X188450000Y-114603262I0J271738D01*
G01*
X188450000Y-113896738D01*
G75*
G02*
X188721738Y-113625000I271738J0D01*
G01*
X189678262Y-113625000D01*
G75*
G02*
X189950000Y-113896738I0J-271738D01*
G01*
X189950000Y-114603262D01*
G75*
G02*
X189678262Y-114875000I-271738J0D01*
G01*
G37*
G36*
G01*
X189678262Y-116925000D02*
X188721738Y-116925000D01*
G75*
G02*
X188450000Y-116653262I0J271738D01*
G01*
X188450000Y-115946738D01*
G75*
G02*
X188721738Y-115675000I271738J0D01*
G01*
X189678262Y-115675000D01*
G75*
G02*
X189950000Y-115946738I0J-271738D01*
G01*
X189950000Y-116653262D01*
G75*
G02*
X189678262Y-116925000I-271738J0D01*
G01*
G37*
%TD*%
%TO.C,D5*%
G36*
G01*
X188625000Y-81271738D02*
X188625000Y-82228262D01*
G75*
G02*
X188353262Y-82500000I-271738J0D01*
G01*
X187646738Y-82500000D01*
G75*
G02*
X187375000Y-82228262I0J271738D01*
G01*
X187375000Y-81271738D01*
G75*
G02*
X187646738Y-81000000I271738J0D01*
G01*
X188353262Y-81000000D01*
G75*
G02*
X188625000Y-81271738I0J-271738D01*
G01*
G37*
G36*
G01*
X190675000Y-81271738D02*
X190675000Y-82228262D01*
G75*
G02*
X190403262Y-82500000I-271738J0D01*
G01*
X189696738Y-82500000D01*
G75*
G02*
X189425000Y-82228262I0J271738D01*
G01*
X189425000Y-81271738D01*
G75*
G02*
X189696738Y-81000000I271738J0D01*
G01*
X190403262Y-81000000D01*
G75*
G02*
X190675000Y-81271738I0J-271738D01*
G01*
G37*
%TD*%
%TO.C,F1*%
G36*
G01*
X193642544Y-43337500D02*
X194957456Y-43337500D01*
G75*
G02*
X195225000Y-43605044I0J-267544D01*
G01*
X195225000Y-44594956D01*
G75*
G02*
X194957456Y-44862500I-267544J0D01*
G01*
X193642544Y-44862500D01*
G75*
G02*
X193375000Y-44594956I0J267544D01*
G01*
X193375000Y-43605044D01*
G75*
G02*
X193642544Y-43337500I267544J0D01*
G01*
G37*
G36*
G01*
X193642544Y-40362500D02*
X194957456Y-40362500D01*
G75*
G02*
X195225000Y-40630044I0J-267544D01*
G01*
X195225000Y-41619956D01*
G75*
G02*
X194957456Y-41887500I-267544J0D01*
G01*
X193642544Y-41887500D01*
G75*
G02*
X193375000Y-41619956I0J267544D01*
G01*
X193375000Y-40630044D01*
G75*
G02*
X193642544Y-40362500I267544J0D01*
G01*
G37*
%TD*%
D15*
%TO.C,J4*%
X164120000Y-34000000D03*
X156500000Y-41620000D03*
X164120000Y-36540000D03*
X156500000Y-39080000D03*
X164120000Y-39080000D03*
X156500000Y-36540000D03*
X164120000Y-41620000D03*
D16*
X156500000Y-34000000D03*
%TD*%
%TO.C,R2*%
G36*
G01*
X147021738Y-105125000D02*
X147978262Y-105125000D01*
G75*
G02*
X148250000Y-105396738I0J-271738D01*
G01*
X148250000Y-106103262D01*
G75*
G02*
X147978262Y-106375000I-271738J0D01*
G01*
X147021738Y-106375000D01*
G75*
G02*
X146750000Y-106103262I0J271738D01*
G01*
X146750000Y-105396738D01*
G75*
G02*
X147021738Y-105125000I271738J0D01*
G01*
G37*
G36*
G01*
X147021738Y-103075000D02*
X147978262Y-103075000D01*
G75*
G02*
X148250000Y-103346738I0J-271738D01*
G01*
X148250000Y-104053262D01*
G75*
G02*
X147978262Y-104325000I-271738J0D01*
G01*
X147021738Y-104325000D01*
G75*
G02*
X146750000Y-104053262I0J271738D01*
G01*
X146750000Y-103346738D01*
G75*
G02*
X147021738Y-103075000I271738J0D01*
G01*
G37*
%TD*%
%TO.C,R3*%
G36*
G01*
X147021738Y-110625000D02*
X147978262Y-110625000D01*
G75*
G02*
X148250000Y-110896738I0J-271738D01*
G01*
X148250000Y-111603262D01*
G75*
G02*
X147978262Y-111875000I-271738J0D01*
G01*
X147021738Y-111875000D01*
G75*
G02*
X146750000Y-111603262I0J271738D01*
G01*
X146750000Y-110896738D01*
G75*
G02*
X147021738Y-110625000I271738J0D01*
G01*
G37*
G36*
G01*
X147021738Y-108575000D02*
X147978262Y-108575000D01*
G75*
G02*
X148250000Y-108846738I0J-271738D01*
G01*
X148250000Y-109553262D01*
G75*
G02*
X147978262Y-109825000I-271738J0D01*
G01*
X147021738Y-109825000D01*
G75*
G02*
X146750000Y-109553262I0J271738D01*
G01*
X146750000Y-108846738D01*
G75*
G02*
X147021738Y-108575000I271738J0D01*
G01*
G37*
%TD*%
%TO.C,R4*%
G36*
G01*
X147021738Y-122175000D02*
X147978262Y-122175000D01*
G75*
G02*
X148250000Y-122446738I0J-271738D01*
G01*
X148250000Y-123153262D01*
G75*
G02*
X147978262Y-123425000I-271738J0D01*
G01*
X147021738Y-123425000D01*
G75*
G02*
X146750000Y-123153262I0J271738D01*
G01*
X146750000Y-122446738D01*
G75*
G02*
X147021738Y-122175000I271738J0D01*
G01*
G37*
G36*
G01*
X147021738Y-120125000D02*
X147978262Y-120125000D01*
G75*
G02*
X148250000Y-120396738I0J-271738D01*
G01*
X148250000Y-121103262D01*
G75*
G02*
X147978262Y-121375000I-271738J0D01*
G01*
X147021738Y-121375000D01*
G75*
G02*
X146750000Y-121103262I0J271738D01*
G01*
X146750000Y-120396738D01*
G75*
G02*
X147021738Y-120125000I271738J0D01*
G01*
G37*
%TD*%
%TO.C,R5*%
G36*
G01*
X192978262Y-104325000D02*
X192021738Y-104325000D01*
G75*
G02*
X191750000Y-104053262I0J271738D01*
G01*
X191750000Y-103346738D01*
G75*
G02*
X192021738Y-103075000I271738J0D01*
G01*
X192978262Y-103075000D01*
G75*
G02*
X193250000Y-103346738I0J-271738D01*
G01*
X193250000Y-104053262D01*
G75*
G02*
X192978262Y-104325000I-271738J0D01*
G01*
G37*
G36*
G01*
X192978262Y-106375000D02*
X192021738Y-106375000D01*
G75*
G02*
X191750000Y-106103262I0J271738D01*
G01*
X191750000Y-105396738D01*
G75*
G02*
X192021738Y-105125000I271738J0D01*
G01*
X192978262Y-105125000D01*
G75*
G02*
X193250000Y-105396738I0J-271738D01*
G01*
X193250000Y-106103262D01*
G75*
G02*
X192978262Y-106375000I-271738J0D01*
G01*
G37*
%TD*%
%TO.C,R6*%
G36*
G01*
X192021738Y-116375000D02*
X192978262Y-116375000D01*
G75*
G02*
X193250000Y-116646738I0J-271738D01*
G01*
X193250000Y-117353262D01*
G75*
G02*
X192978262Y-117625000I-271738J0D01*
G01*
X192021738Y-117625000D01*
G75*
G02*
X191750000Y-117353262I0J271738D01*
G01*
X191750000Y-116646738D01*
G75*
G02*
X192021738Y-116375000I271738J0D01*
G01*
G37*
G36*
G01*
X192021738Y-114325000D02*
X192978262Y-114325000D01*
G75*
G02*
X193250000Y-114596738I0J-271738D01*
G01*
X193250000Y-115303262D01*
G75*
G02*
X192978262Y-115575000I-271738J0D01*
G01*
X192021738Y-115575000D01*
G75*
G02*
X191750000Y-115303262I0J271738D01*
G01*
X191750000Y-114596738D01*
G75*
G02*
X192021738Y-114325000I271738J0D01*
G01*
G37*
%TD*%
%TO.C,R7*%
G36*
G01*
X192021738Y-121925000D02*
X192978262Y-121925000D01*
G75*
G02*
X193250000Y-122196738I0J-271738D01*
G01*
X193250000Y-122903262D01*
G75*
G02*
X192978262Y-123175000I-271738J0D01*
G01*
X192021738Y-123175000D01*
G75*
G02*
X191750000Y-122903262I0J271738D01*
G01*
X191750000Y-122196738D01*
G75*
G02*
X192021738Y-121925000I271738J0D01*
G01*
G37*
G36*
G01*
X192021738Y-119875000D02*
X192978262Y-119875000D01*
G75*
G02*
X193250000Y-120146738I0J-271738D01*
G01*
X193250000Y-120853262D01*
G75*
G02*
X192978262Y-121125000I-271738J0D01*
G01*
X192021738Y-121125000D01*
G75*
G02*
X191750000Y-120853262I0J271738D01*
G01*
X191750000Y-120146738D01*
G75*
G02*
X192021738Y-119875000I271738J0D01*
G01*
G37*
%TD*%
%TO.C,R8*%
G36*
G01*
X169375000Y-87478262D02*
X169375000Y-86521738D01*
G75*
G02*
X169646738Y-86250000I271738J0D01*
G01*
X170353262Y-86250000D01*
G75*
G02*
X170625000Y-86521738I0J-271738D01*
G01*
X170625000Y-87478262D01*
G75*
G02*
X170353262Y-87750000I-271738J0D01*
G01*
X169646738Y-87750000D01*
G75*
G02*
X169375000Y-87478262I0J271738D01*
G01*
G37*
G36*
G01*
X167325000Y-87478262D02*
X167325000Y-86521738D01*
G75*
G02*
X167596738Y-86250000I271738J0D01*
G01*
X168303262Y-86250000D01*
G75*
G02*
X168575000Y-86521738I0J-271738D01*
G01*
X168575000Y-87478262D01*
G75*
G02*
X168303262Y-87750000I-271738J0D01*
G01*
X167596738Y-87750000D01*
G75*
G02*
X167325000Y-87478262I0J271738D01*
G01*
G37*
%TD*%
%TO.C,R9*%
G36*
G01*
X176375000Y-82478262D02*
X176375000Y-81521738D01*
G75*
G02*
X176646738Y-81250000I271738J0D01*
G01*
X177353262Y-81250000D01*
G75*
G02*
X177625000Y-81521738I0J-271738D01*
G01*
X177625000Y-82478262D01*
G75*
G02*
X177353262Y-82750000I-271738J0D01*
G01*
X176646738Y-82750000D01*
G75*
G02*
X176375000Y-82478262I0J271738D01*
G01*
G37*
G36*
G01*
X174325000Y-82478262D02*
X174325000Y-81521738D01*
G75*
G02*
X174596738Y-81250000I271738J0D01*
G01*
X175303262Y-81250000D01*
G75*
G02*
X175575000Y-81521738I0J-271738D01*
G01*
X175575000Y-82478262D01*
G75*
G02*
X175303262Y-82750000I-271738J0D01*
G01*
X174596738Y-82750000D01*
G75*
G02*
X174325000Y-82478262I0J271738D01*
G01*
G37*
%TD*%
%TO.C,R10*%
G36*
G01*
X176375000Y-86478262D02*
X176375000Y-85521738D01*
G75*
G02*
X176646738Y-85250000I271738J0D01*
G01*
X177353262Y-85250000D01*
G75*
G02*
X177625000Y-85521738I0J-271738D01*
G01*
X177625000Y-86478262D01*
G75*
G02*
X177353262Y-86750000I-271738J0D01*
G01*
X176646738Y-86750000D01*
G75*
G02*
X176375000Y-86478262I0J271738D01*
G01*
G37*
G36*
G01*
X174325000Y-86478262D02*
X174325000Y-85521738D01*
G75*
G02*
X174596738Y-85250000I271738J0D01*
G01*
X175303262Y-85250000D01*
G75*
G02*
X175575000Y-85521738I0J-271738D01*
G01*
X175575000Y-86478262D01*
G75*
G02*
X175303262Y-86750000I-271738J0D01*
G01*
X174596738Y-86750000D01*
G75*
G02*
X174325000Y-86478262I0J271738D01*
G01*
G37*
%TD*%
%TO.C,R11*%
G36*
G01*
X176375000Y-90478262D02*
X176375000Y-89521738D01*
G75*
G02*
X176646738Y-89250000I271738J0D01*
G01*
X177353262Y-89250000D01*
G75*
G02*
X177625000Y-89521738I0J-271738D01*
G01*
X177625000Y-90478262D01*
G75*
G02*
X177353262Y-90750000I-271738J0D01*
G01*
X176646738Y-90750000D01*
G75*
G02*
X176375000Y-90478262I0J271738D01*
G01*
G37*
G36*
G01*
X174325000Y-90478262D02*
X174325000Y-89521738D01*
G75*
G02*
X174596738Y-89250000I271738J0D01*
G01*
X175303262Y-89250000D01*
G75*
G02*
X175575000Y-89521738I0J-271738D01*
G01*
X175575000Y-90478262D01*
G75*
G02*
X175303262Y-90750000I-271738J0D01*
G01*
X174596738Y-90750000D01*
G75*
G02*
X174325000Y-90478262I0J271738D01*
G01*
G37*
%TD*%
%TO.C,R12*%
G36*
G01*
X147978262Y-115625000D02*
X147021738Y-115625000D01*
G75*
G02*
X146750000Y-115353262I0J271738D01*
G01*
X146750000Y-114646738D01*
G75*
G02*
X147021738Y-114375000I271738J0D01*
G01*
X147978262Y-114375000D01*
G75*
G02*
X148250000Y-114646738I0J-271738D01*
G01*
X148250000Y-115353262D01*
G75*
G02*
X147978262Y-115625000I-271738J0D01*
G01*
G37*
G36*
G01*
X147978262Y-117675000D02*
X147021738Y-117675000D01*
G75*
G02*
X146750000Y-117403262I0J271738D01*
G01*
X146750000Y-116696738D01*
G75*
G02*
X147021738Y-116425000I271738J0D01*
G01*
X147978262Y-116425000D01*
G75*
G02*
X148250000Y-116696738I0J-271738D01*
G01*
X148250000Y-117403262D01*
G75*
G02*
X147978262Y-117675000I-271738J0D01*
G01*
G37*
%TD*%
%TO.C,R13*%
G36*
G01*
X147021738Y-127925000D02*
X147978262Y-127925000D01*
G75*
G02*
X148250000Y-128196738I0J-271738D01*
G01*
X148250000Y-128903262D01*
G75*
G02*
X147978262Y-129175000I-271738J0D01*
G01*
X147021738Y-129175000D01*
G75*
G02*
X146750000Y-128903262I0J271738D01*
G01*
X146750000Y-128196738D01*
G75*
G02*
X147021738Y-127925000I271738J0D01*
G01*
G37*
G36*
G01*
X147021738Y-125875000D02*
X147978262Y-125875000D01*
G75*
G02*
X148250000Y-126146738I0J-271738D01*
G01*
X148250000Y-126853262D01*
G75*
G02*
X147978262Y-127125000I-271738J0D01*
G01*
X147021738Y-127125000D01*
G75*
G02*
X146750000Y-126853262I0J271738D01*
G01*
X146750000Y-126146738D01*
G75*
G02*
X147021738Y-125875000I271738J0D01*
G01*
G37*
%TD*%
%TO.C,R14*%
G36*
G01*
X192978262Y-127075000D02*
X192021738Y-127075000D01*
G75*
G02*
X191750000Y-126803262I0J271738D01*
G01*
X191750000Y-126096738D01*
G75*
G02*
X192021738Y-125825000I271738J0D01*
G01*
X192978262Y-125825000D01*
G75*
G02*
X193250000Y-126096738I0J-271738D01*
G01*
X193250000Y-126803262D01*
G75*
G02*
X192978262Y-127075000I-271738J0D01*
G01*
G37*
G36*
G01*
X192978262Y-129125000D02*
X192021738Y-129125000D01*
G75*
G02*
X191750000Y-128853262I0J271738D01*
G01*
X191750000Y-128146738D01*
G75*
G02*
X192021738Y-127875000I271738J0D01*
G01*
X192978262Y-127875000D01*
G75*
G02*
X193250000Y-128146738I0J-271738D01*
G01*
X193250000Y-128853262D01*
G75*
G02*
X192978262Y-129125000I-271738J0D01*
G01*
G37*
%TD*%
%TO.C,R15*%
G36*
G01*
X192978262Y-109875000D02*
X192021738Y-109875000D01*
G75*
G02*
X191750000Y-109603262I0J271738D01*
G01*
X191750000Y-108896738D01*
G75*
G02*
X192021738Y-108625000I271738J0D01*
G01*
X192978262Y-108625000D01*
G75*
G02*
X193250000Y-108896738I0J-271738D01*
G01*
X193250000Y-109603262D01*
G75*
G02*
X192978262Y-109875000I-271738J0D01*
G01*
G37*
G36*
G01*
X192978262Y-111925000D02*
X192021738Y-111925000D01*
G75*
G02*
X191750000Y-111653262I0J271738D01*
G01*
X191750000Y-110946738D01*
G75*
G02*
X192021738Y-110675000I271738J0D01*
G01*
X192978262Y-110675000D01*
G75*
G02*
X193250000Y-110946738I0J-271738D01*
G01*
X193250000Y-111653262D01*
G75*
G02*
X192978262Y-111925000I-271738J0D01*
G01*
G37*
%TD*%
%TO.C,R16*%
G36*
G01*
X176375000Y-94478262D02*
X176375000Y-93521738D01*
G75*
G02*
X176646738Y-93250000I271738J0D01*
G01*
X177353262Y-93250000D01*
G75*
G02*
X177625000Y-93521738I0J-271738D01*
G01*
X177625000Y-94478262D01*
G75*
G02*
X177353262Y-94750000I-271738J0D01*
G01*
X176646738Y-94750000D01*
G75*
G02*
X176375000Y-94478262I0J271738D01*
G01*
G37*
G36*
G01*
X174325000Y-94478262D02*
X174325000Y-93521738D01*
G75*
G02*
X174596738Y-93250000I271738J0D01*
G01*
X175303262Y-93250000D01*
G75*
G02*
X175575000Y-93521738I0J-271738D01*
G01*
X175575000Y-94478262D01*
G75*
G02*
X175303262Y-94750000I-271738J0D01*
G01*
X174596738Y-94750000D01*
G75*
G02*
X174325000Y-94478262I0J271738D01*
G01*
G37*
%TD*%
D23*
%TO.C,SW1*%
X138500000Y-110400000D03*
X138500000Y-105900000D03*
X145000000Y-110400000D03*
X145000000Y-105900000D03*
%TD*%
%TO.C,SW2*%
X138500000Y-120400000D03*
X138500000Y-115900000D03*
X145000000Y-120400000D03*
X145000000Y-115900000D03*
%TD*%
%TO.C,SW3*%
X138500000Y-130400000D03*
X138500000Y-125900000D03*
X145000000Y-130400000D03*
X145000000Y-125900000D03*
%TD*%
%TO.C,SW4*%
X201500000Y-105900000D03*
X201500000Y-110400000D03*
X195000000Y-105900000D03*
X195000000Y-110400000D03*
%TD*%
%TO.C,SW5*%
X201500000Y-115900000D03*
X201500000Y-120400000D03*
X195000000Y-115900000D03*
X195000000Y-120400000D03*
%TD*%
%TO.C,SW6*%
X201500000Y-125900000D03*
X201500000Y-130400000D03*
X195000000Y-125900000D03*
X195000000Y-130400000D03*
%TD*%
%TO.C,SW7*%
X137750000Y-88750000D03*
X142250000Y-88750000D03*
X137750000Y-95250000D03*
X142250000Y-95250000D03*
%TD*%
%TO.C,SW8*%
X197750000Y-72500000D03*
X202250000Y-72500000D03*
X197750000Y-79000000D03*
X202250000Y-79000000D03*
%TD*%
%TO.C,SW9*%
X197750000Y-88750000D03*
X202250000Y-88750000D03*
X197750000Y-95250000D03*
X202250000Y-95250000D03*
%TD*%
D24*
%TO.C,SW10*%
X204000000Y-40600000D03*
X204000000Y-32400000D03*
D25*
X204000000Y-38500000D03*
X204000000Y-36500000D03*
D26*
X204000000Y-34500000D03*
%TD*%
D27*
%TO.C,SW11*%
X165100000Y-27500000D03*
X156900000Y-27500000D03*
D28*
X163000000Y-27500000D03*
X161000000Y-27500000D03*
D29*
X159000000Y-27500000D03*
%TD*%
D30*
%TO.C,U1*%
X204650000Y-49000000D03*
X204650000Y-44400000D03*
X204650000Y-46700000D03*
D31*
X198350000Y-46700000D03*
%TD*%
%TO.C,U3*%
G36*
G01*
X171550000Y-30730000D02*
X171550000Y-31080000D01*
G75*
G02*
X171375000Y-31255000I-175000J0D01*
G01*
X169675000Y-31255000D01*
G75*
G02*
X169500000Y-31080000I0J175000D01*
G01*
X169500000Y-30730000D01*
G75*
G02*
X169675000Y-30555000I175000J0D01*
G01*
X171375000Y-30555000D01*
G75*
G02*
X171550000Y-30730000I0J-175000D01*
G01*
G37*
G36*
G01*
X171550000Y-29460000D02*
X171550000Y-29810000D01*
G75*
G02*
X171375000Y-29985000I-175000J0D01*
G01*
X169675000Y-29985000D01*
G75*
G02*
X169500000Y-29810000I0J175000D01*
G01*
X169500000Y-29460000D01*
G75*
G02*
X169675000Y-29285000I175000J0D01*
G01*
X171375000Y-29285000D01*
G75*
G02*
X171550000Y-29460000I0J-175000D01*
G01*
G37*
G36*
G01*
X171550000Y-28190000D02*
X171550000Y-28540000D01*
G75*
G02*
X171375000Y-28715000I-175000J0D01*
G01*
X169675000Y-28715000D01*
G75*
G02*
X169500000Y-28540000I0J175000D01*
G01*
X169500000Y-28190000D01*
G75*
G02*
X169675000Y-28015000I175000J0D01*
G01*
X171375000Y-28015000D01*
G75*
G02*
X171550000Y-28190000I0J-175000D01*
G01*
G37*
G36*
G01*
X171550000Y-26920000D02*
X171550000Y-27270000D01*
G75*
G02*
X171375000Y-27445000I-175000J0D01*
G01*
X169675000Y-27445000D01*
G75*
G02*
X169500000Y-27270000I0J175000D01*
G01*
X169500000Y-26920000D01*
G75*
G02*
X169675000Y-26745000I175000J0D01*
G01*
X171375000Y-26745000D01*
G75*
G02*
X171550000Y-26920000I0J-175000D01*
G01*
G37*
G36*
G01*
X176500000Y-26920000D02*
X176500000Y-27270000D01*
G75*
G02*
X176325000Y-27445000I-175000J0D01*
G01*
X174625000Y-27445000D01*
G75*
G02*
X174450000Y-27270000I0J175000D01*
G01*
X174450000Y-26920000D01*
G75*
G02*
X174625000Y-26745000I175000J0D01*
G01*
X176325000Y-26745000D01*
G75*
G02*
X176500000Y-26920000I0J-175000D01*
G01*
G37*
G36*
G01*
X176500000Y-28190000D02*
X176500000Y-28540000D01*
G75*
G02*
X176325000Y-28715000I-175000J0D01*
G01*
X174625000Y-28715000D01*
G75*
G02*
X174450000Y-28540000I0J175000D01*
G01*
X174450000Y-28190000D01*
G75*
G02*
X174625000Y-28015000I175000J0D01*
G01*
X176325000Y-28015000D01*
G75*
G02*
X176500000Y-28190000I0J-175000D01*
G01*
G37*
G36*
G01*
X176500000Y-29460000D02*
X176500000Y-29810000D01*
G75*
G02*
X176325000Y-29985000I-175000J0D01*
G01*
X174625000Y-29985000D01*
G75*
G02*
X174450000Y-29810000I0J175000D01*
G01*
X174450000Y-29460000D01*
G75*
G02*
X174625000Y-29285000I175000J0D01*
G01*
X176325000Y-29285000D01*
G75*
G02*
X176500000Y-29460000I0J-175000D01*
G01*
G37*
G36*
G01*
X176500000Y-30730000D02*
X176500000Y-31080000D01*
G75*
G02*
X176325000Y-31255000I-175000J0D01*
G01*
X174625000Y-31255000D01*
G75*
G02*
X174450000Y-31080000I0J175000D01*
G01*
X174450000Y-30730000D01*
G75*
G02*
X174625000Y-30555000I175000J0D01*
G01*
X176325000Y-30555000D01*
G75*
G02*
X176500000Y-30730000I0J-175000D01*
G01*
G37*
%TD*%
%TO.C,U5*%
G36*
G01*
X155175000Y-93905000D02*
X155175000Y-94255000D01*
G75*
G02*
X155000000Y-94430000I-175000J0D01*
G01*
X153200000Y-94430000D01*
G75*
G02*
X153025000Y-94255000I0J175000D01*
G01*
X153025000Y-93905000D01*
G75*
G02*
X153200000Y-93730000I175000J0D01*
G01*
X155000000Y-93730000D01*
G75*
G02*
X155175000Y-93905000I0J-175000D01*
G01*
G37*
G36*
G01*
X155175000Y-92635000D02*
X155175000Y-92985000D01*
G75*
G02*
X155000000Y-93160000I-175000J0D01*
G01*
X153200000Y-93160000D01*
G75*
G02*
X153025000Y-92985000I0J175000D01*
G01*
X153025000Y-92635000D01*
G75*
G02*
X153200000Y-92460000I175000J0D01*
G01*
X155000000Y-92460000D01*
G75*
G02*
X155175000Y-92635000I0J-175000D01*
G01*
G37*
G36*
G01*
X155175000Y-91365000D02*
X155175000Y-91715000D01*
G75*
G02*
X155000000Y-91890000I-175000J0D01*
G01*
X153200000Y-91890000D01*
G75*
G02*
X153025000Y-91715000I0J175000D01*
G01*
X153025000Y-91365000D01*
G75*
G02*
X153200000Y-91190000I175000J0D01*
G01*
X155000000Y-91190000D01*
G75*
G02*
X155175000Y-91365000I0J-175000D01*
G01*
G37*
G36*
G01*
X155175000Y-90095000D02*
X155175000Y-90445000D01*
G75*
G02*
X155000000Y-90620000I-175000J0D01*
G01*
X153200000Y-90620000D01*
G75*
G02*
X153025000Y-90445000I0J175000D01*
G01*
X153025000Y-90095000D01*
G75*
G02*
X153200000Y-89920000I175000J0D01*
G01*
X155000000Y-89920000D01*
G75*
G02*
X155175000Y-90095000I0J-175000D01*
G01*
G37*
G36*
G01*
X155175000Y-88825000D02*
X155175000Y-89175000D01*
G75*
G02*
X155000000Y-89350000I-175000J0D01*
G01*
X153200000Y-89350000D01*
G75*
G02*
X153025000Y-89175000I0J175000D01*
G01*
X153025000Y-88825000D01*
G75*
G02*
X153200000Y-88650000I175000J0D01*
G01*
X155000000Y-88650000D01*
G75*
G02*
X155175000Y-88825000I0J-175000D01*
G01*
G37*
G36*
G01*
X155175000Y-87555000D02*
X155175000Y-87905000D01*
G75*
G02*
X155000000Y-88080000I-175000J0D01*
G01*
X153200000Y-88080000D01*
G75*
G02*
X153025000Y-87905000I0J175000D01*
G01*
X153025000Y-87555000D01*
G75*
G02*
X153200000Y-87380000I175000J0D01*
G01*
X155000000Y-87380000D01*
G75*
G02*
X155175000Y-87555000I0J-175000D01*
G01*
G37*
G36*
G01*
X155175000Y-86285000D02*
X155175000Y-86635000D01*
G75*
G02*
X155000000Y-86810000I-175000J0D01*
G01*
X153200000Y-86810000D01*
G75*
G02*
X153025000Y-86635000I0J175000D01*
G01*
X153025000Y-86285000D01*
G75*
G02*
X153200000Y-86110000I175000J0D01*
G01*
X155000000Y-86110000D01*
G75*
G02*
X155175000Y-86285000I0J-175000D01*
G01*
G37*
G36*
G01*
X155175000Y-85015000D02*
X155175000Y-85365000D01*
G75*
G02*
X155000000Y-85540000I-175000J0D01*
G01*
X153200000Y-85540000D01*
G75*
G02*
X153025000Y-85365000I0J175000D01*
G01*
X153025000Y-85015000D01*
G75*
G02*
X153200000Y-84840000I175000J0D01*
G01*
X155000000Y-84840000D01*
G75*
G02*
X155175000Y-85015000I0J-175000D01*
G01*
G37*
G36*
G01*
X155175000Y-83745000D02*
X155175000Y-84095000D01*
G75*
G02*
X155000000Y-84270000I-175000J0D01*
G01*
X153200000Y-84270000D01*
G75*
G02*
X153025000Y-84095000I0J175000D01*
G01*
X153025000Y-83745000D01*
G75*
G02*
X153200000Y-83570000I175000J0D01*
G01*
X155000000Y-83570000D01*
G75*
G02*
X155175000Y-83745000I0J-175000D01*
G01*
G37*
G36*
G01*
X164475000Y-83745000D02*
X164475000Y-84095000D01*
G75*
G02*
X164300000Y-84270000I-175000J0D01*
G01*
X162500000Y-84270000D01*
G75*
G02*
X162325000Y-84095000I0J175000D01*
G01*
X162325000Y-83745000D01*
G75*
G02*
X162500000Y-83570000I175000J0D01*
G01*
X164300000Y-83570000D01*
G75*
G02*
X164475000Y-83745000I0J-175000D01*
G01*
G37*
G36*
G01*
X164475000Y-85015000D02*
X164475000Y-85365000D01*
G75*
G02*
X164300000Y-85540000I-175000J0D01*
G01*
X162500000Y-85540000D01*
G75*
G02*
X162325000Y-85365000I0J175000D01*
G01*
X162325000Y-85015000D01*
G75*
G02*
X162500000Y-84840000I175000J0D01*
G01*
X164300000Y-84840000D01*
G75*
G02*
X164475000Y-85015000I0J-175000D01*
G01*
G37*
G36*
G01*
X164475000Y-86285000D02*
X164475000Y-86635000D01*
G75*
G02*
X164300000Y-86810000I-175000J0D01*
G01*
X162500000Y-86810000D01*
G75*
G02*
X162325000Y-86635000I0J175000D01*
G01*
X162325000Y-86285000D01*
G75*
G02*
X162500000Y-86110000I175000J0D01*
G01*
X164300000Y-86110000D01*
G75*
G02*
X164475000Y-86285000I0J-175000D01*
G01*
G37*
G36*
G01*
X164475000Y-87555000D02*
X164475000Y-87905000D01*
G75*
G02*
X164300000Y-88080000I-175000J0D01*
G01*
X162500000Y-88080000D01*
G75*
G02*
X162325000Y-87905000I0J175000D01*
G01*
X162325000Y-87555000D01*
G75*
G02*
X162500000Y-87380000I175000J0D01*
G01*
X164300000Y-87380000D01*
G75*
G02*
X164475000Y-87555000I0J-175000D01*
G01*
G37*
G36*
G01*
X164475000Y-88825000D02*
X164475000Y-89175000D01*
G75*
G02*
X164300000Y-89350000I-175000J0D01*
G01*
X162500000Y-89350000D01*
G75*
G02*
X162325000Y-89175000I0J175000D01*
G01*
X162325000Y-88825000D01*
G75*
G02*
X162500000Y-88650000I175000J0D01*
G01*
X164300000Y-88650000D01*
G75*
G02*
X164475000Y-88825000I0J-175000D01*
G01*
G37*
G36*
G01*
X164475000Y-90095000D02*
X164475000Y-90445000D01*
G75*
G02*
X164300000Y-90620000I-175000J0D01*
G01*
X162500000Y-90620000D01*
G75*
G02*
X162325000Y-90445000I0J175000D01*
G01*
X162325000Y-90095000D01*
G75*
G02*
X162500000Y-89920000I175000J0D01*
G01*
X164300000Y-89920000D01*
G75*
G02*
X164475000Y-90095000I0J-175000D01*
G01*
G37*
G36*
G01*
X164475000Y-91365000D02*
X164475000Y-91715000D01*
G75*
G02*
X164300000Y-91890000I-175000J0D01*
G01*
X162500000Y-91890000D01*
G75*
G02*
X162325000Y-91715000I0J175000D01*
G01*
X162325000Y-91365000D01*
G75*
G02*
X162500000Y-91190000I175000J0D01*
G01*
X164300000Y-91190000D01*
G75*
G02*
X164475000Y-91365000I0J-175000D01*
G01*
G37*
G36*
G01*
X164475000Y-92635000D02*
X164475000Y-92985000D01*
G75*
G02*
X164300000Y-93160000I-175000J0D01*
G01*
X162500000Y-93160000D01*
G75*
G02*
X162325000Y-92985000I0J175000D01*
G01*
X162325000Y-92635000D01*
G75*
G02*
X162500000Y-92460000I175000J0D01*
G01*
X164300000Y-92460000D01*
G75*
G02*
X164475000Y-92635000I0J-175000D01*
G01*
G37*
G36*
G01*
X164475000Y-93905000D02*
X164475000Y-94255000D01*
G75*
G02*
X164300000Y-94430000I-175000J0D01*
G01*
X162500000Y-94430000D01*
G75*
G02*
X162325000Y-94255000I0J175000D01*
G01*
X162325000Y-93905000D01*
G75*
G02*
X162500000Y-93730000I175000J0D01*
G01*
X164300000Y-93730000D01*
G75*
G02*
X164475000Y-93905000I0J-175000D01*
G01*
G37*
%TD*%
%TO.C,C6*%
G36*
G01*
X153021738Y-40425000D02*
X153978262Y-40425000D01*
G75*
G02*
X154250000Y-40696738I0J-271738D01*
G01*
X154250000Y-41403262D01*
G75*
G02*
X153978262Y-41675000I-271738J0D01*
G01*
X153021738Y-41675000D01*
G75*
G02*
X152750000Y-41403262I0J271738D01*
G01*
X152750000Y-40696738D01*
G75*
G02*
X153021738Y-40425000I271738J0D01*
G01*
G37*
G36*
G01*
X153021738Y-38375000D02*
X153978262Y-38375000D01*
G75*
G02*
X154250000Y-38646738I0J-271738D01*
G01*
X154250000Y-39353262D01*
G75*
G02*
X153978262Y-39625000I-271738J0D01*
G01*
X153021738Y-39625000D01*
G75*
G02*
X152750000Y-39353262I0J271738D01*
G01*
X152750000Y-38646738D01*
G75*
G02*
X153021738Y-38375000I271738J0D01*
G01*
G37*
%TD*%
%TO.C,C7*%
G36*
G01*
X141525000Y-80978262D02*
X141525000Y-80021738D01*
G75*
G02*
X141796738Y-79750000I271738J0D01*
G01*
X142503262Y-79750000D01*
G75*
G02*
X142775000Y-80021738I0J-271738D01*
G01*
X142775000Y-80978262D01*
G75*
G02*
X142503262Y-81250000I-271738J0D01*
G01*
X141796738Y-81250000D01*
G75*
G02*
X141525000Y-80978262I0J271738D01*
G01*
G37*
G36*
G01*
X139475000Y-80978262D02*
X139475000Y-80021738D01*
G75*
G02*
X139746738Y-79750000I271738J0D01*
G01*
X140453262Y-79750000D01*
G75*
G02*
X140725000Y-80021738I0J-271738D01*
G01*
X140725000Y-80978262D01*
G75*
G02*
X140453262Y-81250000I-271738J0D01*
G01*
X139746738Y-81250000D01*
G75*
G02*
X139475000Y-80978262I0J271738D01*
G01*
G37*
%TD*%
%TO.C,C8*%
G36*
G01*
X192021738Y-66375000D02*
X192978262Y-66375000D01*
G75*
G02*
X193250000Y-66646738I0J-271738D01*
G01*
X193250000Y-67353262D01*
G75*
G02*
X192978262Y-67625000I-271738J0D01*
G01*
X192021738Y-67625000D01*
G75*
G02*
X191750000Y-67353262I0J271738D01*
G01*
X191750000Y-66646738D01*
G75*
G02*
X192021738Y-66375000I271738J0D01*
G01*
G37*
G36*
G01*
X192021738Y-64325000D02*
X192978262Y-64325000D01*
G75*
G02*
X193250000Y-64596738I0J-271738D01*
G01*
X193250000Y-65303262D01*
G75*
G02*
X192978262Y-65575000I-271738J0D01*
G01*
X192021738Y-65575000D01*
G75*
G02*
X191750000Y-65303262I0J271738D01*
G01*
X191750000Y-64596738D01*
G75*
G02*
X192021738Y-64325000I271738J0D01*
G01*
G37*
%TD*%
%TO.C,C9*%
G36*
G01*
X192978262Y-57575000D02*
X192021738Y-57575000D01*
G75*
G02*
X191750000Y-57303262I0J271738D01*
G01*
X191750000Y-56596738D01*
G75*
G02*
X192021738Y-56325000I271738J0D01*
G01*
X192978262Y-56325000D01*
G75*
G02*
X193250000Y-56596738I0J-271738D01*
G01*
X193250000Y-57303262D01*
G75*
G02*
X192978262Y-57575000I-271738J0D01*
G01*
G37*
G36*
G01*
X192978262Y-59625000D02*
X192021738Y-59625000D01*
G75*
G02*
X191750000Y-59353262I0J271738D01*
G01*
X191750000Y-58646738D01*
G75*
G02*
X192021738Y-58375000I271738J0D01*
G01*
X192978262Y-58375000D01*
G75*
G02*
X193250000Y-58646738I0J-271738D01*
G01*
X193250000Y-59353262D01*
G75*
G02*
X192978262Y-59625000I-271738J0D01*
G01*
G37*
%TD*%
%TO.C,R1*%
G36*
G01*
X184978262Y-80325000D02*
X184021738Y-80325000D01*
G75*
G02*
X183750000Y-80053262I0J271738D01*
G01*
X183750000Y-79346738D01*
G75*
G02*
X184021738Y-79075000I271738J0D01*
G01*
X184978262Y-79075000D01*
G75*
G02*
X185250000Y-79346738I0J-271738D01*
G01*
X185250000Y-80053262D01*
G75*
G02*
X184978262Y-80325000I-271738J0D01*
G01*
G37*
G36*
G01*
X184978262Y-82375000D02*
X184021738Y-82375000D01*
G75*
G02*
X183750000Y-82103262I0J271738D01*
G01*
X183750000Y-81396738D01*
G75*
G02*
X184021738Y-81125000I271738J0D01*
G01*
X184978262Y-81125000D01*
G75*
G02*
X185250000Y-81396738I0J-271738D01*
G01*
X185250000Y-82103262D01*
G75*
G02*
X184978262Y-82375000I-271738J0D01*
G01*
G37*
%TD*%
%TO.C,R17*%
G36*
G01*
X136875000Y-80978262D02*
X136875000Y-80021738D01*
G75*
G02*
X137146738Y-79750000I271738J0D01*
G01*
X137853262Y-79750000D01*
G75*
G02*
X138125000Y-80021738I0J-271738D01*
G01*
X138125000Y-80978262D01*
G75*
G02*
X137853262Y-81250000I-271738J0D01*
G01*
X137146738Y-81250000D01*
G75*
G02*
X136875000Y-80978262I0J271738D01*
G01*
G37*
G36*
G01*
X134825000Y-80978262D02*
X134825000Y-80021738D01*
G75*
G02*
X135096738Y-79750000I271738J0D01*
G01*
X135803262Y-79750000D01*
G75*
G02*
X136075000Y-80021738I0J-271738D01*
G01*
X136075000Y-80978262D01*
G75*
G02*
X135803262Y-81250000I-271738J0D01*
G01*
X135096738Y-81250000D01*
G75*
G02*
X134825000Y-80978262I0J271738D01*
G01*
G37*
%TD*%
%TO.C,R18*%
G36*
G01*
X136950000Y-84778262D02*
X136950000Y-83821738D01*
G75*
G02*
X137221738Y-83550000I271738J0D01*
G01*
X137928262Y-83550000D01*
G75*
G02*
X138200000Y-83821738I0J-271738D01*
G01*
X138200000Y-84778262D01*
G75*
G02*
X137928262Y-85050000I-271738J0D01*
G01*
X137221738Y-85050000D01*
G75*
G02*
X136950000Y-84778262I0J271738D01*
G01*
G37*
G36*
G01*
X134900000Y-84778262D02*
X134900000Y-83821738D01*
G75*
G02*
X135171738Y-83550000I271738J0D01*
G01*
X135878262Y-83550000D01*
G75*
G02*
X136150000Y-83821738I0J-271738D01*
G01*
X136150000Y-84778262D01*
G75*
G02*
X135878262Y-85050000I-271738J0D01*
G01*
X135171738Y-85050000D01*
G75*
G02*
X134900000Y-84778262I0J271738D01*
G01*
G37*
%TD*%
%TO.C,R19*%
G36*
G01*
X141475000Y-84778262D02*
X141475000Y-83821738D01*
G75*
G02*
X141746738Y-83550000I271738J0D01*
G01*
X142453262Y-83550000D01*
G75*
G02*
X142725000Y-83821738I0J-271738D01*
G01*
X142725000Y-84778262D01*
G75*
G02*
X142453262Y-85050000I-271738J0D01*
G01*
X141746738Y-85050000D01*
G75*
G02*
X141475000Y-84778262I0J271738D01*
G01*
G37*
G36*
G01*
X139425000Y-84778262D02*
X139425000Y-83821738D01*
G75*
G02*
X139696738Y-83550000I271738J0D01*
G01*
X140403262Y-83550000D01*
G75*
G02*
X140675000Y-83821738I0J-271738D01*
G01*
X140675000Y-84778262D01*
G75*
G02*
X140403262Y-85050000I-271738J0D01*
G01*
X139696738Y-85050000D01*
G75*
G02*
X139425000Y-84778262I0J271738D01*
G01*
G37*
%TD*%
%TO.C,R20*%
G36*
G01*
X145975000Y-84778262D02*
X145975000Y-83821738D01*
G75*
G02*
X146246738Y-83550000I271738J0D01*
G01*
X146953262Y-83550000D01*
G75*
G02*
X147225000Y-83821738I0J-271738D01*
G01*
X147225000Y-84778262D01*
G75*
G02*
X146953262Y-85050000I-271738J0D01*
G01*
X146246738Y-85050000D01*
G75*
G02*
X145975000Y-84778262I0J271738D01*
G01*
G37*
G36*
G01*
X143925000Y-84778262D02*
X143925000Y-83821738D01*
G75*
G02*
X144196738Y-83550000I271738J0D01*
G01*
X144903262Y-83550000D01*
G75*
G02*
X145175000Y-83821738I0J-271738D01*
G01*
X145175000Y-84778262D01*
G75*
G02*
X144903262Y-85050000I-271738J0D01*
G01*
X144196738Y-85050000D01*
G75*
G02*
X143925000Y-84778262I0J271738D01*
G01*
G37*
%TD*%
%TO.C,R21*%
G36*
G01*
X150475000Y-84778262D02*
X150475000Y-83821738D01*
G75*
G02*
X150746738Y-83550000I271738J0D01*
G01*
X151453262Y-83550000D01*
G75*
G02*
X151725000Y-83821738I0J-271738D01*
G01*
X151725000Y-84778262D01*
G75*
G02*
X151453262Y-85050000I-271738J0D01*
G01*
X150746738Y-85050000D01*
G75*
G02*
X150475000Y-84778262I0J271738D01*
G01*
G37*
G36*
G01*
X148425000Y-84778262D02*
X148425000Y-83821738D01*
G75*
G02*
X148696738Y-83550000I271738J0D01*
G01*
X149403262Y-83550000D01*
G75*
G02*
X149675000Y-83821738I0J-271738D01*
G01*
X149675000Y-84778262D01*
G75*
G02*
X149403262Y-85050000I-271738J0D01*
G01*
X148696738Y-85050000D01*
G75*
G02*
X148425000Y-84778262I0J271738D01*
G01*
G37*
%TD*%
D14*
%TO.C,J2*%
X142000000Y-29500000D03*
X142000000Y-27000000D03*
X147000000Y-34500000D03*
X152000000Y-29500000D03*
X152000000Y-27000000D03*
D12*
X152000000Y-34500000D03*
X149500000Y-34500000D03*
X144500000Y-34500000D03*
X142000000Y-34500000D03*
D13*
X147000000Y-29500000D03*
%TD*%
%TO.C,R22*%
G36*
G01*
X181278262Y-82325000D02*
X180321738Y-82325000D01*
G75*
G02*
X180050000Y-82053262I0J271738D01*
G01*
X180050000Y-81346738D01*
G75*
G02*
X180321738Y-81075000I271738J0D01*
G01*
X181278262Y-81075000D01*
G75*
G02*
X181550000Y-81346738I0J-271738D01*
G01*
X181550000Y-82053262D01*
G75*
G02*
X181278262Y-82325000I-271738J0D01*
G01*
G37*
G36*
G01*
X181278262Y-80275000D02*
X180321738Y-80275000D01*
G75*
G02*
X180050000Y-80003262I0J271738D01*
G01*
X180050000Y-79296738D01*
G75*
G02*
X180321738Y-79025000I271738J0D01*
G01*
X181278262Y-79025000D01*
G75*
G02*
X181550000Y-79296738I0J-271738D01*
G01*
X181550000Y-80003262D01*
G75*
G02*
X181278262Y-80275000I-271738J0D01*
G01*
G37*
%TD*%
M02*
