%TF.GenerationSoftware,KiCad,Pcbnew,(5.1.6)-1*%
%TF.CreationDate,2021-02-27T16:06:52+00:00*%
%TF.ProjectId,FT817_buddy_v4,46543831-375f-4627-9564-64795f76342e,rev?*%
%TF.SameCoordinates,Original*%
%TF.FileFunction,Soldermask,Bot*%
%TF.FilePolarity,Negative*%
%FSLAX46Y46*%
G04 Gerber Fmt 4.6, Leading zero omitted, Abs format (unit mm)*
G04 Created by KiCad (PCBNEW (5.1.6)-1) date 2021-02-27 16:06:52*
%MOMM*%
%LPD*%
G01*
G04 APERTURE LIST*
%ADD10O,1.800000X1.800000*%
%ADD11R,1.800000X1.800000*%
%ADD12O,1.408000X2.716000*%
%ADD13O,2.716000X1.408000*%
%ADD14C,1.300000*%
%ADD15O,1.700000X1.700000*%
%ADD16R,1.700000X1.700000*%
%ADD17C,3.300000*%
%ADD18C,1.600000*%
%ADD19O,2.100000X4.600000*%
%ADD20R,1.600000X3.100000*%
%ADD21C,2.100000*%
%ADD22O,3.600000X2.300000*%
%ADD23O,2.600000X1.600000*%
%ADD24R,2.600000X1.600000*%
%ADD25O,2.300000X3.600000*%
%ADD26O,1.600000X2.600000*%
%ADD27R,1.600000X2.600000*%
G04 APERTURE END LIST*
D10*
%TO.C,J9*%
X136000000Y-45340000D03*
X136000000Y-47880000D03*
X136000000Y-50420000D03*
X136000000Y-52960000D03*
D11*
X136000000Y-55500000D03*
%TD*%
%TO.C,J7*%
X145000000Y-55540000D03*
D10*
X145000000Y-53000000D03*
X145000000Y-50460000D03*
X145000000Y-47920000D03*
X145000000Y-45380000D03*
%TD*%
%TO.C,J8*%
X140500000Y-45320000D03*
X140500000Y-47860000D03*
X140500000Y-50400000D03*
X140500000Y-52940000D03*
D11*
X140500000Y-55480000D03*
%TD*%
D12*
%TO.C,J3*%
X202000000Y-62000000D03*
D13*
X197000000Y-57000000D03*
X197000000Y-59500000D03*
X197000000Y-64500000D03*
X197000000Y-67000000D03*
D14*
X204500000Y-67000000D03*
X202000000Y-67000000D03*
X197000000Y-62000000D03*
X204500000Y-57000000D03*
X202000000Y-57000000D03*
%TD*%
D15*
%TO.C,A1*%
X136440000Y-76000000D03*
X136440000Y-60760000D03*
X172000000Y-76000000D03*
X138980000Y-60760000D03*
X169460000Y-76000000D03*
X141520000Y-60760000D03*
X166920000Y-76000000D03*
X144060000Y-60760000D03*
X164380000Y-76000000D03*
X146600000Y-60760000D03*
X161840000Y-76000000D03*
X149140000Y-60760000D03*
X159300000Y-76000000D03*
X151680000Y-60760000D03*
X156760000Y-76000000D03*
X154220000Y-60760000D03*
X154220000Y-76000000D03*
X156760000Y-60760000D03*
X151680000Y-76000000D03*
X159300000Y-60760000D03*
X149140000Y-76000000D03*
X161840000Y-60760000D03*
X146600000Y-76000000D03*
X164380000Y-60760000D03*
X144060000Y-76000000D03*
X166920000Y-60760000D03*
X141520000Y-76000000D03*
X169460000Y-60760000D03*
X138980000Y-76000000D03*
D16*
X172000000Y-60760000D03*
%TD*%
D10*
%TO.C,J6*%
X156000000Y-55580000D03*
X156000000Y-53040000D03*
D11*
X156000000Y-50500000D03*
%TD*%
D17*
%TO.C,REF\u002A\u002A*%
X136900000Y-28400000D03*
%TD*%
%TO.C,REF\u002A\u002A*%
X203100000Y-28400000D03*
%TD*%
%TO.C,REF\u002A\u002A*%
X203100000Y-134600000D03*
%TD*%
%TO.C,REF\u002A\u002A*%
X136900000Y-134600000D03*
%TD*%
D11*
%TO.C,J5*%
X195000000Y-49000000D03*
%TD*%
D10*
%TO.C,U2*%
X169380000Y-49000000D03*
X171920000Y-49000000D03*
X174460000Y-49000000D03*
D11*
X177000000Y-49000000D03*
%TD*%
D18*
%TO.C,U4*%
X190250000Y-104050000D03*
X190250000Y-106050000D03*
X190250000Y-103550000D03*
D19*
X149750000Y-104800000D03*
X190250000Y-104800000D03*
X149750000Y-124800000D03*
X190250000Y-124800000D03*
D20*
X151000000Y-104800000D03*
X151000000Y-124800000D03*
X189000000Y-124800000D03*
X189000000Y-104800000D03*
D18*
X190250000Y-105300000D03*
X190250000Y-123550000D03*
X190250000Y-126050000D03*
X149750000Y-104050000D03*
X149750000Y-103550000D03*
X149750000Y-105550000D03*
X149750000Y-106050000D03*
X149750000Y-123550000D03*
X149750000Y-126050000D03*
X149750000Y-124300000D03*
X149750000Y-125550000D03*
X190250000Y-124050000D03*
X190250000Y-125300000D03*
%TD*%
D10*
%TO.C,J1*%
X192160000Y-49000000D03*
X189620000Y-49000000D03*
X187080000Y-49000000D03*
X184540000Y-49000000D03*
D11*
X182000000Y-49000000D03*
%TD*%
D15*
%TO.C,J4*%
X164120000Y-34000000D03*
X156500000Y-41620000D03*
X164120000Y-36540000D03*
X156500000Y-39080000D03*
X164120000Y-39080000D03*
X156500000Y-36540000D03*
X164120000Y-41620000D03*
D16*
X156500000Y-34000000D03*
%TD*%
D21*
%TO.C,SW1*%
X138500000Y-110400000D03*
X138500000Y-105900000D03*
X145000000Y-110400000D03*
X145000000Y-105900000D03*
%TD*%
%TO.C,SW2*%
X138500000Y-120400000D03*
X138500000Y-115900000D03*
X145000000Y-120400000D03*
X145000000Y-115900000D03*
%TD*%
%TO.C,SW3*%
X138500000Y-130400000D03*
X138500000Y-125900000D03*
X145000000Y-130400000D03*
X145000000Y-125900000D03*
%TD*%
%TO.C,SW4*%
X201500000Y-105900000D03*
X201500000Y-110400000D03*
X195000000Y-105900000D03*
X195000000Y-110400000D03*
%TD*%
%TO.C,SW5*%
X201500000Y-115900000D03*
X201500000Y-120400000D03*
X195000000Y-115900000D03*
X195000000Y-120400000D03*
%TD*%
%TO.C,SW6*%
X201500000Y-125900000D03*
X201500000Y-130400000D03*
X195000000Y-125900000D03*
X195000000Y-130400000D03*
%TD*%
%TO.C,SW7*%
X137750000Y-88750000D03*
X142250000Y-88750000D03*
X137750000Y-95250000D03*
X142250000Y-95250000D03*
%TD*%
%TO.C,SW8*%
X197750000Y-72500000D03*
X202250000Y-72500000D03*
X197750000Y-79000000D03*
X202250000Y-79000000D03*
%TD*%
%TO.C,SW9*%
X197750000Y-88750000D03*
X202250000Y-88750000D03*
X197750000Y-95250000D03*
X202250000Y-95250000D03*
%TD*%
D22*
%TO.C,SW10*%
X204000000Y-40600000D03*
X204000000Y-32400000D03*
D23*
X204000000Y-38500000D03*
X204000000Y-36500000D03*
D24*
X204000000Y-34500000D03*
%TD*%
D25*
%TO.C,SW11*%
X165100000Y-27500000D03*
X156900000Y-27500000D03*
D26*
X163000000Y-27500000D03*
X161000000Y-27500000D03*
D27*
X159000000Y-27500000D03*
%TD*%
D14*
%TO.C,J2*%
X142000000Y-29500000D03*
X142000000Y-27000000D03*
X147000000Y-34500000D03*
X152000000Y-29500000D03*
X152000000Y-27000000D03*
D12*
X152000000Y-34500000D03*
X149500000Y-34500000D03*
X144500000Y-34500000D03*
X142000000Y-34500000D03*
D13*
X147000000Y-29500000D03*
%TD*%
M02*
