M48
; DRILL file {KiCad (5.1.6)-1} date 02/27/21 16:08:20
; FORMAT={-:-/ absolute / metric / decimal}
; #@! TF.CreationDate,2021-02-27T16:08:20+00:00
; #@! TF.GenerationSoftware,Kicad,Pcbnew,(5.1.6)-1
; #@! TF.FileFunction,Plated,1,2,PTH
FMAT,2
METRIC
T1C0.400
T2C0.800
T3C1.000
T4C1.100
T5C1.500
T6C2.000
%
G90
G05
T1
X135.0Y-67.4
X135.7Y-62.6
X137.2Y-64.9
X144.1Y-128.4
X146.3Y-62.7
X146.4Y-100.2
X147.7Y-113.1
X149.6Y-120.9
X149.8Y-57.0
X151.7Y-87.8
X153.8Y-111.8
X157.1Y-62.7
X158.1Y-77.9
X160.4Y-72.2
X163.4Y-63.6
X163.6Y-57.8
X164.7Y-56.8
X165.2Y-62.8
X165.5Y-54.4
X168.1Y-30.3
X168.2Y-62.2
X170.8Y-70.0
X172.8Y-70.8
X174.0Y-98.4
X174.5Y-65.6
X174.6Y-111.8
X176.6Y-97.4
X190.5Y-66.8
X190.7Y-108.3
X198.1Y-110.3
X198.1Y-129.7
T2
X159.0Y-27.5
X161.0Y-27.5
X163.0Y-27.5
X204.0Y-34.5
X204.0Y-36.5
X204.0Y-38.5
X156.5Y-34.0
X156.5Y-36.54
X156.5Y-39.08
X156.5Y-41.62
X164.12Y-34.0
X164.12Y-36.54
X164.12Y-39.08
X164.12Y-41.62
T3
X136.44Y-60.76
X136.44Y-76.0
X138.98Y-60.76
X138.98Y-76.0
X141.52Y-60.76
X141.52Y-76.0
X144.06Y-60.76
X144.06Y-76.0
X146.6Y-60.76
X146.6Y-76.0
X149.14Y-60.76
X149.14Y-76.0
X151.68Y-60.76
X151.68Y-76.0
X154.22Y-60.76
X154.22Y-76.0
X156.76Y-60.76
X156.76Y-76.0
X159.3Y-60.76
X159.3Y-76.0
X161.84Y-60.76
X161.84Y-76.0
X164.38Y-60.76
X164.38Y-76.0
X166.92Y-60.76
X166.92Y-76.0
X169.46Y-60.76
X169.46Y-76.0
X172.0Y-60.76
X172.0Y-76.0
X169.38Y-49.0
X171.92Y-49.0
X174.46Y-49.0
X177.0Y-49.0
X145.0Y-45.38
X145.0Y-47.92
X145.0Y-50.46
X145.0Y-53.0
X145.0Y-55.54
X140.5Y-45.32
X140.5Y-47.86
X140.5Y-50.4
X140.5Y-52.94
X140.5Y-55.48
X156.0Y-50.5
X156.0Y-53.04
X156.0Y-55.58
X195.0Y-49.0
X136.0Y-45.34
X136.0Y-47.88
X136.0Y-50.42
X136.0Y-52.96
X136.0Y-55.5
X182.0Y-49.0
X184.54Y-49.0
X187.08Y-49.0
X189.62Y-49.0
X192.16Y-49.0
T4
X195.0Y-105.9
X195.0Y-110.4
X201.5Y-105.9
X201.5Y-110.4
X195.0Y-125.9
X195.0Y-130.4
X201.5Y-125.9
X201.5Y-130.4
X197.75Y-72.5
X197.75Y-79.0
X202.25Y-72.5
X202.25Y-79.0
X138.5Y-105.9
X138.5Y-110.4
X145.0Y-105.9
X145.0Y-110.4
X195.0Y-115.9
X195.0Y-120.4
X201.5Y-115.9
X201.5Y-120.4
X197.75Y-88.75
X197.75Y-95.25
X202.25Y-88.75
X202.25Y-95.25
X138.5Y-115.9
X138.5Y-120.4
X145.0Y-115.9
X145.0Y-120.4
X138.5Y-125.9
X138.5Y-130.4
X145.0Y-125.9
X145.0Y-130.4
X137.75Y-88.75
X137.75Y-95.25
X142.25Y-88.75
X142.25Y-95.25
T5
X156.9Y-27.5
X165.1Y-27.5
X204.0Y-32.4
X204.0Y-40.6
T6
X152.75Y-108.3
X187.25Y-134.8
T2
G00X142.0Y-34.15
M15
G01X142.0Y-34.85
M16
G05
G00X144.5Y-34.15
M15
G01X144.5Y-34.85
M16
G05
G00X147.35Y-29.5
M15
G01X146.65Y-29.5
M16
G05
G00X149.5Y-34.15
M15
G01X149.5Y-34.85
M16
G05
G00X152.0Y-34.15
M15
G01X152.0Y-34.85
M16
G05
G00X197.35Y-57.0
M15
G01X196.65Y-57.0
M16
G05
G00X197.35Y-59.5
M15
G01X196.65Y-59.5
M16
G05
G00X197.35Y-64.5
M15
G01X196.65Y-64.5
M16
G05
G00X197.35Y-67.0
M15
G01X196.65Y-67.0
M16
G05
G00X202.0Y-62.35
M15
G01X202.0Y-61.65
M16
G05
T0
M30
